# AST/ASF file generated using VICON BodyLanguage
# -----------------------------------------------
:version 1.10
:name VICON
:units
  mass 1.0
  length 0.45
  angle deg
:documentation
   .ast/.asf automatically generated from VICON data using
   VICON BodyBuilder and BodyLanguage model FoxedUp or BRILLIANT.MOD
:root
   order TX TY TZ RX RY RZ
   axis XYZ
   position 0 0 0  
   orientation 0 0 0 
:bonedata
  begin
     id 1 
     name lhipjoint
     direction 0.584852 -0.759097 0.285867 
     length 2.43633 
     axis 0 0 0  XYZ
  end
  begin
     id 2 
     name lfemur
     direction 0.34202 -0.939693 0  
     length 7.14704  
     axis 0 0 20  XYZ
    dof rx ry rz
    limits (-160.0 20.0)
           (-70.0 70.0)
           (-60.0 70.0)
  end
  begin
     id 3 
     name ltibia
     direction 0.342022 -0.939692 0   
     length 7.68483   
     axis 0 0 20   XYZ
    dof rx
    limits (-10.0 170.0)
  end
  begin
     id 4 
     name lfoot
     direction 0.0999605 -0.274639 0.956337   
     length 2.40452   
     axis -90 7.62852e-016 20   XYZ
    dof rx rz
    limits (-45.0 90.0)
           (-70.0 20.0)
  end
  begin
     id 5 
     name ltoes
     direction 1.53468e-011 -4.21881e-011 1   
     length 1.19837   
     axis -90 7.62852e-016 20   XYZ
    dof rx
    limits (-90.0 20.0)
  end
  begin
     id 6 
     name rhipjoint
     direction -0.569886 -0.769002 0.289597   
     length 2.40495  
     axis 0 0 0  XYZ 
  end
  begin
     id 7 
     name rfemur
     direction -0.34202 -0.939693 0   
     length 7.45086   
     axis 0 0 -20   XYZ
    dof rx ry rz
    limits (-160.0 20.0)
           (-70.0 70.0)
           (-70.0 60.0)
  end
  begin
     id 8 
     name rtibia
     direction -0.34202 -0.939693 0   
     length 7.76831   
     axis 0 0 -20   XYZ
    dof rx
    limits (-10.0 170.0)
 end
 begin
     id 9 
     name rfoot
     direction -0.0798572 -0.219406 0.97236   
     length 2.35911  
     axis -90 -7.62852e-016 -20   XYZ
    dof rx rz
    limits (-45.0 90.0)
           (-20.0 70.0)
  end
  begin
     id 10 
     name rtoes
     direction -1.53469e-011 -4.21728e-011 1   
     length 1.18261   
     axis -90 -7.62852e-016 -20   XYZ
    dof rx
    limits (-90.0 20.0)
  end
  begin
     id 11 
     name lowerback
     direction 0.0242088 0.999437 0.0232389   
     length 2.1561   
     axis 0 0 0   XYZ
    dof rx ry rz
    limits (-20.0 45.0)
           (-30.0 30.0)
           (-30.0 30.0)
  end
  begin
     id 12 
     name upperback
     direction -0.0356893 0.999013 -0.0264323   
     length 2.14431   
     axis 0 0 0   XYZ
    dof rx ry rz
    limits (-20.0 45.0)
           (-30.0 30.0)
           (-30.0 30.0)
  end
  begin
     id 13 
     name thorax
     direction -0.0472163 0.998194 -0.0371284   
     length 2.16169   
     axis 0 0 0   XYZ
    dof rx ry rz
    limits (-20.0 45.0)
           (-30.0 30.0)
           (-30.0 30.0)
  end
  begin
     id 14 
     name lowerneck
     direction 0.00863244 0.999921 0.00911972   
     length 1.58651   
     axis 0 0 0   XYZ
    dof rx ry rz
    limits (-20.0 45.0)
           (-30.0 30.0)
           (-30.0 30.0)
  end
  begin
     id 15 
     name upperneck
     direction 0.149523 0.979068 -0.138086   
     length 1.57486   
     axis 0 0 0   XYZ
    dof rx ry rz
    limits (-20.0 45.0)
           (-30.0 30.0)
           (-30.0 30.0)
  end
  begin
     id 16
     name head
     direction 0.0445219 0.997708 -0.0509576  
     length 1.6019  
     axis 0 0 0   XYZ
    dof rx ry rz
    limits (-20.0 45.0)
           (-30.0 30.0)
           (-30.0 30.0)
  end
  begin
     id 17 
     name lclavicle
     direction 0.911271 0.381667 -0.154644  
     length 3.80848  
     axis 0 0 0   XYZ
    dof ry rz
    limits (-20.0 10.0)
           (0.0 20.0)
  end
  begin
     id 18 
     name lhumerus
     direction 1 -4.49003e-011 2.1308e-027   
     length 5.19069   
     axis 180 -30 -90   XYZ
    dof rx ry rz
    limits (-60.0 90.0)
           (-90.0 90.0)
           (-90.0 90.0)
  end
  begin
     id 19
     name lradius
     direction 1 -4.48914e-011 4.01554e-027   
     length 3.30016   
     axis 180 -30 -90   XYZ
    dof rx
    limits (-10.0 170.0)
  end
  begin
     id 20
     name lwrist
     direction 1 -4.49003e-011 1.1934e-026   
     length 1.65008   
     axis -8.46377e-015 90 90   XYZ
    dof ry
    limits (-180.0 0.0)
 end
  begin
     id 21 
     name lhand
     direction 1 -4.49034e-011 2.38659e-026   
     length 0.707698   
     axis -1.52313e-014 90 90   XYZ
    dof rx rz
    limits (-90.0 90.0)
           (-45.0 45.0)
  end
  begin
     id 22 
     name lfingers
     direction 1 -4.48691e-011 4.77775e-026   
     length 0.570564   
     axis -3.04623e-014 90 90   XYZ
    dof rx
    limits (0.0 90.0)
  end
  begin
     id 23
     name lthumb
     direction 0.707107 -6.34832e-011 0.707107   
     length 0.819219   
     axis -90 45 -1.62303e-014   XYZ
    dof rx rz
    limits (-45.0 45.0)
           (-45.0 45.0)
  end
  begin
     id 24 
     name rclavicle
     direction -0.815579 0.573708 -0.0754329   
     length 3.54371  
     axis 0 0 0   XYZ 
    dof ry rz
    limits (-10.0 20.0)
           (-20.0 0.0)
  end
  begin
     id 25 
     name rhumerus
     direction -1 -4.48956e-011 3.05351e-028  
     length 5.23924   
     axis 180 30 90   XYZ
    dof rx ry rz
    limits (-90.0 60.0)
           (-90.0 90.0)
           (-90.0 90.0)
  end
  begin
     id 26 
     name rradius
     direction -1 -4.49013e-011 3.53849e-027   
     length 3.32953   
     axis 180 30 90   XYZ
    dof rx
    limits (-10.0 170.0)
  end
  begin
     id 27 
     name rwrist
     direction -1 -4.48901e-011 1.19374e-026   
     length 1.66477   
     axis -8.46377e-015 -90 -90   XYZ
    dof ry
    limits (-180.0 0.0)
  end
  begin
     id 28
     name rhand
     direction -1 -4.48877e-011 2.38764e-026   
     length 0.607414   
     axis -1.52313e-014 -90 -90   XYZ
    dof rx rz
    limits (-90.0 90.0)
           (-45.0 45.0)
  end
  begin
     id 29
     name rfingers
     direction -1 -4.48882e-011 4.77521e-026   
     length 0.489712   
     axis -3.04623e-014 -90 -90   XYZ
    dof rx
    limits (0.0 90.0)
  end
  begin
     id 30
     name rthumb
     direction -0.707107 -6.34974e-011 0.707107   
     length 0.703132   
     axis -90 -45 1.62303e-014   XYZ
    dof rx rz
    limits (-45.0 45.0)
           (-45.0 45.0)
  end
:hierarchy
  begin
    root lhipjoint rhipjoint lowerback
    lhipjoint lfemur
    lfemur ltibia
    ltibia lfoot
    lfoot ltoes
    rhipjoint rfemur
    rfemur rtibia
    rtibia rfoot
    rfoot rtoes
    lowerback upperback
    upperback thorax
    thorax lowerneck lclavicle rclavicle
    lowerneck upperneck
    upperneck head
    lclavicle lhumerus
    lhumerus lradius
    lradius lwrist
    lwrist lhand lthumb
    lhand lfingers
    rclavicle rhumerus
    rhumerus rradius
    rradius rwrist
    rwrist rhand rthumb
    rhand rfingers
  end

#!OML:ASF E:\VariousWalksJay\Project 1\Capture day 1\Session 1\Actor2.ASF
:FULLY-SPECIFIED
:DEGREES
552
root 3.10541 16.0368 9.43314 -1.10394 25.8962 -10.7914
lowerback -3.14388 0.682939 2.38811
upperback -0.405315 0.944666 -5.76432
thorax 1.48503 0.516704 -7.3168
lowerneck -6.42798 -6.93736 -10.3587
upperneck 1.51895 -9.6298 23.7191
head 3.32154 -4.26534 8.5869
rclavicle -1.14301e-014 5.725e-014
rhumerus -35.7794 24.5196 -106.578
rradius 60.424
rwrist -7.41487
rhand -20.8117 9.13267
rfingers 7.12502
rthumb 5.55617 -20.7745
lclavicle -1.14301e-014 5.725e-014
lhumerus -40.0423 -11.7217 76.091
lradius 41.155
lwrist 30.3472
lhand -25.4293 -18.9066
lfingers 7.12502
lthumb 1.09694 11.0704
rfemur -2.10238 -11.2937 30.19
rtibia 68.4128
rfoot -6.77244 -1.24543
rtoes -18.2067
lfemur -38.8024 7.84688 -11.5034
ltibia 58.6177
lfoot -22.6275 2.30179
ltoes -0.456605
553
root 3.19076 16.0825 9.5688 -0.881663 25.1712 -9.97737
lowerback -2.93852 0.502138 1.83927
upperback -0.403283 0.722664 -5.90579
thorax 1.33473 0.399303 -7.16057
lowerneck -6.65862 -6.62613 -10.0363
upperneck 1.92326 -9.26447 23.4731
head 3.38075 -4.0557 8.47432
rclavicle -4.63168e-014 3.18055e-015
rhumerus -36.259 24.1781 -106.662
rradius 56.0214
rwrist -6.49001
rhand -20.5978 8.71763
rfingers 7.12502
rthumb 5.76266 -21.184
lclavicle -4.63168e-014 3.18055e-015
lhumerus -37.9273 -8.59894 76.0228
lradius 41.6512
lwrist 31.053
lhand -25.8544 -19.0864
lfingers 7.12502
lthumb 0.686327 10.8922
rfemur -4.42907 -10.9423 28.9079
rtibia 72.6411
rfoot -7.04986 -1.70821
rtoes -17.4699
lfemur -37.3378 7.93664 -12.1552
ltibia 57.9259
lfoot -23.1074 2.79486
ltoes -0.550166
554
root 3.27524 16.1291 9.70302 -0.715428 24.4388 -9.23315
lowerback -2.73077 0.329356 1.34657
upperback -0.396694 0.505875 -6.00812
thorax 1.19166 0.285383 -6.99356
lowerneck -6.87087 -6.31601 -9.69011
upperneck 2.29838 -8.89824 23.2077
head 3.42851 -3.84842 8.35147
rclavicle -3.11098e-014 1.90833e-014
rhumerus -36.667 23.8182 -106.533
rradius 51.7464
rwrist -4.87435
rhand -20.2542 8.32265
rfingers 7.12502
rthumb 6.09439 -21.5697
lclavicle -3.11098e-014 1.90833e-014
lhumerus -35.9836 -6.07008 76.3541
lradius 42.4384
lwrist 31.8525
lhand -26.0223 -19.2767
lfingers 7.12502
lthumb 0.524226 10.7024
rfemur -6.80753 -10.5586 27.7155
rtibia 76.6997
rfoot -7.54509 -1.88627
rtoes -16.9106
lfemur -35.8556 8.09137 -12.7642
ltibia 57.1843
lfoot -23.5475 3.23606
ltoes -0.643015
555
root 3.35919 16.1758 9.83648 -0.621726 23.7098 -8.59843
lowerback -2.52631 0.159329 0.949743
upperback -0.38674 0.28651 -6.06052
thorax 1.05662 0.170955 -6.82768
lowerneck -7.05724 -6.00284 -9.32789
upperneck 2.65384 -8.52643 22.9182
head 3.46575 -3.64149 8.21865
rclavicle 5.08392e-014 1.59028e-014
rhumerus -37.0489 23.4332 -106.203
rradius 47.6566
rwrist -2.74679
rhand -19.7871 7.99051
rfingers 7.12502
rthumb 6.54535 -21.8883
lclavicle 5.08392e-014 1.59028e-014
lhumerus -34.1511 -4.2542 77.0323
lradius 43.424
lwrist 32.6312
lhand -25.9465 -19.4595
lfingers 7.12502
lthumb 0.597375 10.5194
rfemur -9.21446 -10.1475 26.6616
rtibia 80.5418
rfoot -8.15223 -1.77772
rtoes -16.6679
lfemur -34.3608 8.31515 -13.2846
ltibia 56.4076
lfoot -23.9539 3.612
ltoes -0.738109
556
root 3.44263 16.2223 9.97002 -0.595987 23.0091 -8.07855
lowerback -2.33194 -0.0117389 0.660695
upperback -0.375528 0.0603752 -6.06988
thorax 0.930338 0.053803 -6.67732
lowerneck -7.21456 -5.68881 -8.948
upperneck 3.00055 -8.15448 22.6085
head 3.49644 -3.43709 8.07646
rclavicle -6.0033e-014 -3.49861e-014
rhumerus -37.4366 22.9969 -105.684
rradius 43.8137
rwrist -0.356669
rhand -19.1928 7.75284
rfingers 7.12502
rthumb 7.119 -22.1074
lclavicle -6.0033e-014 -3.49861e-014
lhumerus -32.3784 -3.22401 77.9649
lradius 44.526
lwrist 33.2722
lhand -25.673 -19.6299
lfingers 7.12502
lthumb 0.86153 10.3481
rfemur -11.6324 -9.72427 25.7646
rtibia 84.1322
rfoot -8.8 -1.47305
rtoes -16.9921
lfemur -32.8621 8.58868 -13.704
ltibia 55.6068
lfoot -24.3316 3.91385
ltoes -0.828058
557
root 3.52597 16.2679 10.1044 -0.615478 22.3415 -7.67107
lowerback -2.16959 -0.184208 0.491694
upperback -0.366136 -0.1717 -6.04255
thorax 0.821351 -0.0656684 -6.55641
lowerneck -7.36037 -5.37918 -8.55108
upperneck 3.35521 -7.79145 22.2728
head 3.52998 -3.23797 7.92201
rclavicle -6.90777e-015 -1.90833e-014
rhumerus -37.8569 22.5173 -104.997
rradius 40.2928
rwrist 1.97165
rhand -18.4835 7.58417
rfingers 7.12502
rthumb 7.80369 -22.2518
lclavicle -6.90777e-015 -1.90833e-014
lhumerus -30.6386 -3.00043 79.057
lradius 45.7033
lwrist 33.714
lhand -25.2474 -19.7839
lfingers 7.12502
lthumb 1.2726 10.192
rfemur -14.065 -9.28632 25.0332
rtibia 87.4476
rfoot -9.44927 -0.988887
rtoes -17.8131
lfemur -31.3785 8.90272 -14.0218
ltibia 54.7874
lfoot -24.6839 4.14926
ltoes -0.933371
558
root 3.60993 16.3127 10.2402 -0.674806 21.7223 -7.35701
lowerback -2.03784 -0.363714 0.440471
upperback -0.353906 -0.415857 -5.98885
thorax 0.731987 -0.190571 -6.47494
lowerneck -7.49927 -5.0715 -8.1437
upperneck 3.71755 -7.43317 21.9155
head 3.56715 -3.04183 7.75837
rclavicle -4.20927e-014 5.725e-014
rhumerus -38.3409 22.0274 -104.171
rradius 37.1602
rwrist 3.98084
rhand -17.6897 7.46678
rfingers 7.12502
rthumb 8.56975 -22.3393
lclavicle -4.20927e-014 5.725e-014
lhumerus -28.9319 -3.53315 80.1948
lradius 46.9509
lwrist 33.9342
lhand -24.6593 -19.907
lfingers 7.12502
lthumb 1.84061 10.0648
rfemur -16.4889 -8.84929 24.4468
rtibia 90.4733
rfoot -10.0872 -0.380485
rtoes -19.0245
lfemur -29.9014 9.22861 -14.2552
ltibia 53.9485
lfoot -25.0153 4.32997
ltoes -1.03831
559
root 3.69415 16.3574 10.3794 -0.780731 21.2113 -7.09794
lowerback -1.92857 -0.571755 0.455784
upperback -0.326083 -0.698484 -5.9174
thorax 0.667252 -0.334025 -6.41327
lowerneck -7.63569 -4.7645 -7.72232
upperneck 4.09216 -7.07796 21.527
head 3.60941 -2.84769 7.58197
rclavicle -7.82528e-014 -6.36111e-015
rhumerus -38.9158 21.5682 -103.243
rradius 34.4703
rwrist 5.48359
rhand -16.8273 7.3706
rfingers 7.12502
rthumb 9.40198 -22.3997
lclavicle -7.82528e-014 -6.36111e-015
lhumerus -27.2849 -4.7446 81.2784
lradius 48.3067
lwrist 33.958
lhand -23.9678 -20.0133
lfingers 7.12502
lthumb 2.50844 9.95168
rfemur -18.8372 -8.4795 23.9638
rtibia 93.1886
rfoot -10.726 0.302703
rtoes -20.5172
lfemur -28.3974 9.5127 -14.4334
ltibia 53.0795
lfoot -25.3282 4.44893
ltoes -1.13537
560
root 3.77939 16.4014 10.5209 -0.887253 20.7525 -6.85502
lowerback -1.84939 -0.790337 0.525383
upperback -0.298087 -0.99541 -5.84242
thorax 0.617657 -0.484317 -6.37895
lowerneck -7.77326 -4.4571 -7.29993
upperneck 4.46883 -6.7216 21.1157
head 3.65494 -2.65382 7.39831
rclavicle -2.60905e-015 3.18055e-014
rhumerus -39.6035 21.1827 -102.244
rradius 32.2605
rwrist 6.46975
rhand -15.9573 7.26983
rfingers 7.12502
rthumb 10.2413 -22.4609
lclavicle -2.60905e-015 3.18055e-014
lhumerus -25.7129 -6.50882 82.2209
lradius 49.8069
lwrist 33.8453
lhand -23.1437 -20.0953
lfingers 7.12502
lthumb 3.30435 9.85886
rfemur -21.1573 -8.12377 23.5421
rtibia 95.6076
rfoot -11.3468 1.0228
rtoes -22.1434
lfemur -26.8918 9.78087 -14.6052
ltibia 52.1728
lfoot -25.618 4.54329
ltoes -1.22752
